<?xml version="1.0" encoding="UTF-8"?><svg id="Livello_1" xmlns="http://www.w3.org/2000/svg" viewBox="0 0 1177.98 742.17"><defs><style>.cls-1{stroke-width:0px;}</style></defs><path class="cls-1" d="M679.03,346.32c6.27,0,12.54.09,18.81-.07,1.36-.03,2.94-.62,4.01-1.46,3.29-2.6,7.44-2.79,9.93-.47,6.8,6.33,15.36,7.56,23.66,9.41,28.74,6.4,56.32,16.12,83.74,26.79,16.68,6.49,32.23,14.26,45.94,25.45,12.54,10.24,24.92,20.93,32.52,35.7,1.83,3.56,3.11,7.83,3.19,11.8.2,9.49-.46,19-.78,28.49-.02.59,0,1.24-.23,1.76-4,9-2.54,18.72-3.97,28.01-1.07,6.96-4.5,13.79-7.89,20.13-10.07,18.81-25.98,30.58-45.76,38.22-14.97,5.78-30.65,7.96-46.09,11.32-16.9,3.68-33.96,6.67-50.99,9.7-3.05.54-4.03,1.71-3.94,4.6.73,22.6,2.23,45.09,9.1,66.86,1.11,3.53,1.86,7.18,2.6,10.8.32,1.58.61,3.36.2,4.85-2.23,8.12-4.45,16.26-7.21,24.2-.66,1.89-3.19,4.02-5.14,4.36-3.1.53-5.57-1.48-6.67-4.73-5.79-17.26-11.79-34.41-15.54-52.33-3.4-16.26-4.29-32.66-4.93-49.13-.13-3.23-1.3-4.63-4.21-5.77-10.44-4.08-9.33-1.66-9.58-13.8-.16-7.65-.91-15.3-1.4-22.95-.04-.59-.42-1.38-.17-1.74,4.61-6.5.31-13.15.39-19.71.1-7.91,2.07-15.19,7.16-21.38.57-.69,1.87-1.12,2.83-1.1,4.45.1,4.39-2.38,4.06-5.84-1.14-12.13-1.91-24.29-2.95-36.43-.2-2.34-.74-4.72-1.55-6.92-4.92-13.34-10.02-26.61-14.93-39.94-1.27-3.44-3.82-4.45-7.05-5.22-7.77-1.83-15.58-3.64-23.16-6.1-6.97-2.27-8.25-4.96-6.08-11.82,3.13-9.86,6.75-19.56,10.03-29.38,1.35-4.06,2-8.37,3.61-12.31,1.24-3.02,3.43-5.67,5.28-8.42,1.04-1.53,2.26-2.94,3.4-4.4-.09-.36-.17-.72-.26-1.08ZM740.24,515.83c5.94-.29,10.86-.09,15.64-.84,14.94-2.34,29.86-4.86,44.72-7.67,11.92-2.25,24.07-4.15,34.73-10.45,5.75-3.4,11-7.63,16.35-11.4-34.08-27.66-73.46-41.17-113.99-52.04-.57.37-1.14.74-1.71,1.11,1.41,26.9,2.81,53.81,4.25,81.29Z"/><path class="cls-1" d="M487.79,406.35c-10.2,1.6-21.21,3.1-32.12,5.12-7.39,1.37-14.6,3.71-21.99,5.17-2.94.58-6.23.39-9.18-.28-3.58-.81-4.75-4.28-3.78-7.87,3.72-13.84,7.14-27.76,10.97-41.56,3.57-12.86,6.51-16.06,18.74-17.42,19.02-2.12,38.09-3.88,57.17-5.26,4.02-.29,8.18,1.9,12.32,2.67,6.83,1.27,13.76,2.05,20.54,3.5,16.16,3.45,33.31,2.46,48.41,10.59,9.71,5.22,19.56,10.27,28.81,16.24,9.85,6.36,11.79,16.5,9.57,27.22-2.16,10.43-4.99,20.75-8.11,30.94-3.07,10.02-6.87,19.81-10.58,30.36,5.54.5,11.57.63,17.43,1.71,4.56.85,9.11,2.48,13.21,4.61,1.58.82,2.56,3.97,2.73,6.14,1.11,14.21,2.67,28.44,2.67,42.67.01,24.28,1.96,48.38,4.31,72.51,1.72,17.6,2.51,35.28,3.91,52.91.85,10.66,2.2,21.27,3.04,31.93.27,3.48.13,7.15-.7,10.52-2.96,11.9-6.21,23.74-9.53,35.55-1.16,4.11-2.72,8.12-4.3,12.09-1.6,4-4.6,6.26-9.04,5.66-4.02-.55-7.28-4.82-7.4-9.41-.11-4.14.17-8.3-.07-12.43-1.1-18.24-2.2-36.48-3.55-54.7-1.2-16.15-2.55-32.29-4.18-48.4-.94-9.28-2.6-18.49-3.83-27.75-.63-4.71-.35-9.64-1.64-14.13-3.82-13.32-3.91-27.15-6.13-40.67-.47-2.85-2.35-2.93-4.56-3-15.32-.48-30.53-1.98-45.3-6.22-4.29-1.23-8.49-3.51-12.1-6.17-2.62-1.93-4.17-1.93-6.46-.03-9.26,7.7-18.64,15.25-27.82,23.04-1.18,1-1.96,2.99-2.11,4.61-2.48,25.7-2.39,51.32,2.31,76.82,1.48,8.01,2.9,16.06,3.65,24.15.32,3.4-1.31,6.95-1.8,10.47-1.45,10.43-2.59,20.92-4.24,31.32-.83,5.2-2.09,10.43-4.05,15.28-.67,1.65-4,2.76-6.26,3.11-7.92,1.22-13.2-3.34-12.38-11.12,3.27-31.23-.51-62.29-1.75-93.42-.76-19.13-.46-38.29-.72-57.44-.13-9.55-.42-19.09-.66-28.63-.01-.42-.44-1-.28-1.24,7.22-10.92,4.07-22.96,3.13-34.48-.89-10.89-2.66-21.88-5.62-32.37-3.58-12.69-.53-24.08,4.05-35.48,1.08-2.68,3.41-4.85,5.26-7.39ZM583.25,430.46c-4.93-2.36-8.97-4.37-13.07-6.26-18.22-8.38-37.67-12.1-57.33-15.02-3.3-.49-4.45.68-4.44,4.08.11,23.74.05,47.49.05,71.24,0,2.57,0,5.14,0,9.06,25.46-21.12,52.5-38.13,74.78-63.1Z"/><path class="cls-1" d="M73.63,574.6c1.26-4.77,2.58-9.53,3.78-14.32,4.37-17.4,9.23-34.69,12.91-52.24,5.24-24.96,9.58-50.11,14.34-75.18,1.55-8.16,3.36-16.27,4.77-24.44.63-3.64.54-7.39.79-11.1.63-9.17,7.1-14.24,14.45-11.34,3.8,1.5,6.04,4.42,6.67,8.3,1.23,7.62,1.69,15.38,3.3,22.91,3.39,15.8,7.65,31.41,10.95,47.23,5.34,25.56,9.74,51.31,15.38,76.8,4.77,21.56,10.71,42.86,16.15,64.26.28,1.12.82,2.18,1.65,4.33.99-2.16,1.81-3.42,2.17-4.81,6.3-24.2,12.47-48.43,18.81-72.62,15.16-57.81,31.35-115.31,50.74-171.87,3.59-10.48,6.26-21.38,8.2-32.3.88-4.96-1.18-10.4-1.61-15.65-.13-1.57.57-4.55,1.22-4.64,5.82-.84,11.58-3.76,17.61-.06,4.78,2.93,5.6,4.58,4.74,10.1-.97,6.24-1.04,12.62-1.78,18.9-.97,8.25-2.33,16.45-3.33,24.69-4.46,36.79-17.32,71.42-27.59,106.69-13.12,45.05-23.57,90.69-32.77,136.67-4.42,22.09-10.19,43.91-15.45,65.83-.98,4.07-2.98,7.96-3.54,12.06-.53,3.89.42,7.95.35,11.93-.05,2.93-.44,5.91-1.13,8.75-.69,2.85-2.84,4.29-5.18,1.88-2.92-3-6-6.23-7.72-9.96-21.23-46.14-36.65-94.18-46.65-143.99-2.6-12.93-5.66-25.77-8.99-38.53-1.27-4.85-3.9-9.34-5.9-14-.64.07-1.28.14-1.92.2-.88,4.68-1.74,9.36-2.64,14.04-3.79,19.66-7.69,39.3-11.36,58.98-4.96,26.55-10.46,53.03-14.24,79.75-1.46,10.32-4.4,20.81-2.18,31.76.76,3.74-2.22,8.44-4.1,12.42-1.03,2.18-4.43.68-5.82-2.91-3.06-7.87-6.37-15.7-8.76-23.78-7.06-23.89-13.22-48.06-20.75-71.8-4.65-14.66-11.84-28.49-16.67-43.1-6.6-19.97-11.71-40.43-18.14-60.47-3.02-9.4-7.41-18.4-11.58-27.39-2-4.31-3.28-8.43-2.67-13.24,2.18-17.08,4.01-34.2,6.4-51.24.35-2.5,2.64-6.1,4.69-6.62,2.09-.53,5.45,1.59,7.45,3.43,6.71,6.16,8.68,14.61,10.3,23.16,7.43,39.13,18.25,77.32,31.32,114.93,3.5,10.06,5.71,20.56,8.6,30.84.66,2.33,1.68,4.56,2.53,6.84.73-.03,1.45-.06,2.18-.09Z"/><path class="cls-1" d="M937.11,523.26c2.78.43,5.63.61,8.33,1.35,3.61.98,5.37-.29,6.75-3.65,11.05-26.89,22.58-53.59,33.3-80.61,8.47-21.34,15.98-43.07,23.99-64.6,2.22-5.97,4.78-11.81,7.03-17.77,1.36-3.6,2.75-7.21,7.23-7.44,4.35-.22,6.02,3.4,7.67,6.51,10.59,19.93,21.22,39.84,31.56,59.9,18.51,35.9,36.25,72.15,49.68,110.34.91,2.6,2.04,3.67,5.01,3.5,3.67-.2,7.4.4,11.09.77,3.19.32,5.04,3.44,4.02,6.59-.31.96-1.1,2.07-.86,2.87,2.43,8.01-2.14,15.39-1.9,23.17.09,2.9,0,6.04,1.06,8.63,15.24,37.03,30.85,73.91,45.81,111.05,1.75,4.35,1.11,10.31-.14,15.06-1.53,5.83-1.67,12.32-6.31,17.24-2.36,2.5-3.81,2.21-5.62-.13-.9-1.17-1.92-2.3-2.56-3.61-5.58-11.37-11.05-22.79-16.63-34.17-8.48-17.31-17.14-34.53-25.46-51.91-3.77-7.88-7.25-15.95-10.18-24.17-1.51-4.26-3.75-4.77-7.66-4.45-12.86,1.05-25.76,2.64-38.61,2.37-14.36-.3-28.72-2.04-43.01-3.8-19.87-2.45-39.66-2.91-59.49.17-2.78.43-5.65.62-8.45.46-4.01-.22-5.71,1.83-7.08,5.29-8.55,21.66-17.43,43.2-25.87,64.9-2.78,7.16-4.54,14.72-6.83,22.08-.48,1.54-.94,3.25-1.95,4.42-.86,1-2.57,1.98-3.74,1.81-1.09-.16-2.54-1.69-2.83-2.87-3.32-13.4-6.2-26.61-1.46-40.57,6.2-18.24,11.26-36.87,16.84-55.32.66-2.17,1.21-3.79-1.13-5.81-1.27-1.09-1.14-4.43-.81-6.64,1.23-8.35,2.89-16.63,4.19-24.97.78-4.98.74-10.12,1.85-15.01,1.37-6.02,3.11-12.06,5.63-17.67.9-2.01,4.54-2.78,6.93-4.12.19.27.38.54.57.81ZM1013.85,421.63c-1.35,2.84-2.48,4.76-3.22,6.82-6.06,17.02-12.07,34.06-18.06,51.1-4.86,13.84-9.62,27.71-14.53,41.52-1.25,3.51-.27,5.12,3.42,5.13,1.04,0,2.08-.02,3.12.05,22.2,1.42,44.4,2.84,66.6,4.28,7.19.47,14.38.98,22.53,1.53-18.86-38.03-37.08-75.03-59.87-110.44Z"/><path class="cls-1" d="M256.04,681.94c.48-2.82,1.41-5.09,1.12-7.2-.88-6.56-2.52-13.03-3.33-19.6-1.63-13.3-2.35-26.55,1.92-39.65,5.22-15.97,8.07-32.42,9.88-49.14.67-6.14,3.62-12.14,6.16-17.92.81-1.83,3.8-2.6,5.56-4.13,2.35-2.05,5.43-3.96,6.55-6.63,20.7-49.39,41.19-98.87,61.63-148.36,1.58-3.82,2.3-7.99,3.88-11.81,1.61-3.89,3.78-7.64,8.79-7.74,3.97-.08,7.45,3.03,8.91,8.59,5.45,20.79,10.71,41.64,16.02,62.46,5.9,23.13,11.76,46.28,17.74,69.39.77,2.96,2.21,5.75,3.46,8.93,5.3,0,11.03.14,16.75-.04,6.78-.21,8.04,1.01,7.99,7.8-.04,5.39.81,10.85.24,16.17-1.03,9.67-2.65,19.3-4.47,28.86-.3,1.59-2.81,2.89-4.49,4.05-1.97,1.36-2.53,2.71-1.89,5.22,4.67,18.4,8.92,36.91,13.75,55.26,1.65,6.26,4.59,12.18,6.9,18.27,1.58,4.17,2.57,8.06.87,12.84-1.74,4.89-1.71,10.42-2.31,15.69-1.06,9.32-1.73,18.69-3.15,27.94-.54,3.53-2.53,6.89-4.13,10.2-1.85,3.81-5.4,2.19-8.35,2.16-2.62-.03-3.19-1.83-3.51-4.2-1.43-10.71-2.59-21.49-4.75-32.06-4.38-21.45-9.22-42.82-14.11-64.16-2.88-12.57-6.19-25.03-9.35-37.54-.5-1.98-.82-3.95-3.9-3.75-21.55,1.39-42.8,4.31-63.32,11.37-10.51,3.62-21.09,7.08-31.44,11.13-2.54,1-5.45,3.64-6.23,6.15-5.24,16.67-10.14,33.45-14.72,50.3-1.77,6.51-2.25,13.37-3.7,19.98-.43,1.96-1.88,4.08-3.5,5.2-.7.48-3.05-1.34-4.6-2.2-1.13-.63-2.17-1.4-2.86-1.86ZM345.08,454c-.55.14-1.1.28-1.64.42-10.03,24.96-20.07,49.92-30.44,75.71,14.03,1.48,25.65-6.96,39.81-5.4-3.91,1.16-6.71,2-9.51,2.83.05.23.1.47.16.7,9.41-1.28,18.82-2.57,28.63-3.9-.79-2.06-1.3-3.43-1.85-4.79-3.26-8.09-6.8-16.08-9.73-24.3-3.98-11.17-7.38-22.54-11.26-33.74-.92-2.67-2.75-5.03-4.16-7.53Z"/><path class="cls-1" d="M654.04,209.9c2.88-12.87,5.44-25.82,8.72-38.59,4.86-18.91,10.26-37.68,15.4-56.51,5.82-21.34,11.65-42.68,17.39-64.04,2.58-9.6,3.78-19.8,7.83-28.71,2.85-6.25,1.8-12,2.47-17.98.13-1.13.76-2.58,1.64-3.19,2.85-1.97,14.65-.35,17.1,2.08,2.86,2.84,3.01,6.01,1.98,9.79-12.56,46.09-24.94,92.23-37.48,138.33-7.48,27.5-13.25,55.3-15.43,83.77-1.2,15.75-7.41,30.28-11.12,45.43-.88,3.59-2.13,7.09-3.24,10.62-1.14,3.62-3.77,4.89-7.4,4.99-3.67.1-4.32-2.61-5.54-5.1-22.03-45-34.82-93.45-52.3-140.15-6.28-16.77-13.58-33.15-20.43-49.7-.28-.68-.77-1.28-1.55-2.54-.48,7.73-.65,14.72-1.39,21.66-1.58,14.79-3.68,29.53-5.11,44.33-.73,7.55-1.38,15.3-.43,22.76,1.31,10.28-1.88,19.49-4.42,28.96-1.46,5.44-2.98,10.87-4.65,16.25-1.24,3.98-2.54,7.97-4.27,11.75-.49,1.06-2.91,2.26-3.87,1.89-2.5-.96-4.84-2.57-6.88-4.33-.7-.6-.34-2.46-.41-3.75-.59-11.47-1.76-22.95-1.58-34.41.17-10.64,1.72-21.26,2.78-31.88,1.46-14.65,2.92-29.29,4.57-43.92,2.02-17.83,4.24-35.64,6.39-53.46.1-.8.45-1.62.35-2.39-1.36-11.02,4.07-20.36,7.35-30.24,2.28-6.86,4.4-13.77,6.73-20.62.95-2.77,2.07-5.18,6-5.12,4.59.08,8.84.1,11.07,4.99,4.56,9.98,9.94,19.69,13.49,30.03,13.65,39.68,26.62,79.6,40.03,119.36,4.52,13.41,9.63,26.63,14.46,39.93.58-.09,1.16-.18,1.74-.27Z"/><path class="cls-1" d="M266.75,149.15c-9.15,2.42-18.24,5.08-27.47,7.14-3.81.85-7.94.78-11.87.47-3.87-.31-5.72-2.95-4.82-6.86,3.38-14.79,6.81-29.57,10.33-44.33.94-3.94,3.94-5.47,7.73-6.33,18.88-4.29,37.81-8.44,56.54-13.31,10.27-2.67,20.09-7.08,30.34-9.86,4.41-1.19,9.74-1.3,14.05.05,6.12,1.92,6.79,5.78,3.5,11.3-.58.97-1.18,1.96-1.54,3.02-3.28,9.57-6.18,19.28-9.88,28.68-2.09,5.32-4.98,10.49-8.35,15.11-10.77,14.76-21.97,29.22-32.95,43.83-6.76,8.99-13.44,18.04-20.08,27.12-1.11,1.51-1.85,3.3-3.35,6.05,8.64-1.74,16.14-3.63,23.75-4.71,13.1-1.85,26.25-3.25,39.4-4.71,5.62-.62,11.29-1.28,16.92-1.18,3.17.05,6.74.96,9.36,2.67,2.89,1.89,4.5,5.03,1,8.47-1.44,1.42-2.38,3.48-3.2,5.4-4.26,10.04-8.4,20.13-12.61,30.2-3.04,7.28-7.05,12.41-15.99,14.17-28.48,5.61-56.72,12.41-85.08,18.62-12.82,2.81-14.82.4-13.61-12.65,1.17-12.68,1.04-25.47,1.8-38.19.25-4.12.7-8.57,2.47-12.18,6.96-14.2,14.5-28.12,21.78-42.17,4.22-8.14,8.38-16.31,12.56-24.47-.25-.44-.49-.88-.74-1.32Z"/><path class="cls-1" d="M385.47,133.2c1.26-13.73,1.46-27.05,3.96-39.92,2.16-11.11,7.65-21.14,17.65-27.99,23.61-16.18,48.04-17.31,73.28-4.37,12.47,6.39,17.66,17.61,20.35,30.76,5.23,25.54,2.43,50.58-4.21,75.34-3.72,13.84-7.63,27.7-12.62,41.12-4.76,12.8-13.17,23.08-24.76,30.96-16.88,11.47-29.98,8.04-46.06-6.67-16.03-14.66-17.07-33.88-19.87-52.56-1.97-13.16-1.23-26.75-1.27-40.16-.02-4.98-2.18-6.72-6.44-6.51ZM413.78,147.76c1.93,7.85,4.27,18.37,7.17,28.73,1.88,6.7,5.9,12.3,11.87,16.04,1.64,1.03,4.79,1.67,6.13.79,6.87-4.54,14.55-7.71,20.44-13.99,9.38-10.01,14.67-19.98,12.6-34.98-4.16-30.01-30.79-38.03-49.44-32.18-3.45,1.08-5.69,2.73-6.02,6.57-.75,8.69-1.64,17.38-2.75,29.03Z"/><path class="cls-1" d="M821.98,268.09c.4-1.88,1.58-4.23,1.27-6.38-2.99-21.12-6.23-42.21-9.42-63.3-.26-1.73-.74-3.43-1.19-5.5-10.64.78-21.09,1.52-31.54,2.33-10.64.82-21.27,1.89-31.93,2.49-4.33.25-6.79,2-8.31,6-4.69,12.38-9.71,24.65-14.33,37.06-1.96,5.27-3.02,10.88-4.9,16.19-2.41,6.79-7.76,8.4-13.03,3.65-1.36-1.23-1.56-4.85-.95-6.99,4.78-16.76,9.8-33.45,14.96-50.09,1.03-3.33,2-5.87-1.96-8.05-3.02-1.66-2.51-4.36-.76-7.1,3.55-5.54,6.82-11.27,10.31-16.85,2.89-4.61,6.15-9.01,8.89-13.71,2.76-4.72,5.34-9.58,7.54-14.59,8.89-20.26,17.33-40.72,26.48-60.87,6.77-14.9,17.6-27.1,28.49-39.08,4.77-5.24,7.96-4.27,9.4,2.69,3.56,17.07,6.51,34.27,10.13,51.33,5.61,26.38,11.53,52.69,17.41,79.01,4.08,18.27,8.75,36.42,12.27,54.79,1.31,6.82.99,14.27-.14,21.18-1.4,8.53-4.25,16.84-6.81,25.14-.9,2.92-1.89,6.74-6.39,5.82-4.88-1-9.99-1.75-11.97-7.6-.9-2.67-2.38-5.14-3.53-7.59ZM802.29,152.34c-4.44-21.21-8.74-41.73-13.22-63.12-1.02,2.14-1.88,3.74-2.59,5.41-7.09,16.65-14.15,33.3-21.22,49.95-2.62,6.16-2.01,7.29,4.69,8.37,1.75.28,3.56.38,5.33.32,9.04-.27,18.08-.62,27.02-.94Z"/></svg>