<?xml version="1.0" encoding="UTF-8"?><svg id="Livello_1" xmlns="http://www.w3.org/2000/svg" viewBox="0 0 734.92 1170"><defs><style>.cls-1{stroke-width:0px;}</style></defs><g id="Layer_2"><g id="Layer_1-2"><path class="cls-1" d="M679.54,1131.71c-1.3-2.45-2.35-5.09-3.47-7.67-8.8-20.43-17.6-40.86-26.4-61.3-.45-1-1-2-1.51-3-.74-2.29-1.5-4.4-2.77-7.57-6.22-15.63-12.36-31.3-18.43-47-.53-1.54-.73-3.17-.58-4.79.39-4.4,1-8.77,1.6-13.13.11-1.06.45-2.08,1-3,1.3-1.81,1-3.53.76-5.71-.34-3.67-2.54-7.83.86-10.81-.62-2.08-1.17-3.92-1.76-5.87-.41-.15-.84-.26-1.27-.33-4.86-.45-9.71-1-14.57-1.25-1.17-.07-2.38.6-3.74,1-1.26-3.3-2.57-6.52-3.73-9.82-5.3-15.08-11.25-29.78-17.85-44.11-5-10.93-10-21.9-15.13-32.74-4.4-9.27-8.95-18.44-13.58-27.56-4.87-9.58-9.91-19-14.85-28.55-3.48-6.71-6.84-13.51-10.39-20.16-5.23-9.81-10.75-19.41-15.78-29.36-1.32-3-3.08-5.78-5.23-8.26-2-2.11-4.2-2.33-6.71-1.49-4.21,1.42-5,6.08-6.61,9.83-1.22,2.78-1.63,6.09-2.95,8.78-5.88,12-10.48,24.68-15.4,37.22-1.16,2.57-2.16,5.21-3,7.9-2.55,9.83-5.71,19.5-9.48,28.93-7.55,18.7-14.51,37.74-22.17,56.37-5.93,14.39-12.53,28.38-18.89,42.52-1.73,3.86-1.86,3.66-5.48,3.25-5.27-.6-10.41-2.72-15.86-1.28-1.58.22-2.92,1.27-3.5,2.75-1.1,2.73-1.95,5.64-3.24,8.24-2.13,4.27-2.76,8.92-3.32,13.73-.69,6-.44,12.15-2.45,17.91-.76,2.32-1.3,4.7-1.61,7.12-.46,3.11-.6,6.3-1,9.43-.48,3.83-1.22,7.61-1.61,11.45-.39,3.84-.05,4.23,3.22,5.41.17.06.26.42.53.87-.23,1-.4,2.24-.77,3.39-1.91,6.08-4,12.11-5.81,18.23-5.33,17.73-10.59,35.48-15.78,53.24-1,3.43-1.56,7-.44,10.58.13.66.18,1.33.14,2,.17,8.94,2.22,17.41,4.57,25.79.29.78.93,1.38,1.72,1.62,3.15.55,5.54-1.53,6.47-5.25.46-1.84,1.1-3.62,1.61-5.44.63-2.21,1.18-4.44,1.83-6.64,1.29-4.28,2.36-8.68,4-12.77,3.23-8.11,6.94-16,10.17-24.07,6.97-17.49,13.83-35.04,20.58-52.65,1-2.53,2.33-3.38,4.58-3.39,3.82,0,7.64-.31,11.45-.63,1.6-.13,3.18-.79,4.78-.92,5.67-.47,11.34-.8,17-1.19,13.56-.79,27.16-.35,40.64,1.34,13.28,1.51,26.54,3.22,39.83,4.51,16.45,1.59,32.88.67,49.28-1.37,3.45-.43,6.92-.74,10.37-1.28,2.32-.36,3.7.65,4.62,3.19,1.74,4.83,3.55,9.63,5.46,14.36,1.66,4.11,3.33,8.23,5.3,12.12,2.52,5,5.51,9.56,8,14.52,2,4,3.52,8.42,5.4,12.56,2.59,5.71,5.31,11.33,8,17,1.08,2.29,2.06,4.64,3.26,6.83s2.83,4,3.86,6.3c4.62,10.22,9.07,20.55,13.64,30.81.35.92.97,1.71,1.77,2.28,1.75.94,2.93,2.66,3.19,4.63.73,3.49,2.55,6.67,5.19,9.07,2.14,2.15,2.77,2.1,4.58-.22,1.16-1.48,2.47-2.79,3.62-4.27.49-.6.78-1.34.84-2.11-.09-4,1.71-7.35,2.83-10.92.29-1.01.52-2.05.67-3.09.13-1.61.38-3.21.75-4.78,1.36-3.72,1.05-7.85-.85-11.33ZM503.47,800.51c-.09.06-.18.12-.28.16h0c.1-.05.19-.1.28-.16ZM561.76,961.89c-13-.15-25.89-2.08-38.82-3.4-13.16-1.34-26.37-2-39.57-2.67-7.52-.39-15.06-.25-22.59-.35-.58.01-1.16-.01-1.74-.07-3.22-.51-3.94-1.95-2.66-5.6,4.66-13.28,9.42-26.51,14-39.82,6-17.4,11.83-34.9,17.87-52.29,1.82-5.23,4.08-10.24,6.2-15.32.55-1.34,1.33-2.54,2.41-4.53,3,4.42,5.81,8.09,8.16,12.14,5.49,9.42,10.51,19.24,16.15,28.52,11.75,19.31,21.51,40,31.55,60.61,3,6.08,6.38,11.84,9.55,17.79.65,1.23,1.09,2.62,1.76,4.27-.72.34-1.48.58-2.27.72Z"/><path class="cls-1" d="M147.48,948.36c1.6-.76,4-1.57,4-4.87,0-.54,2.92-1.56,4.5-1.58,3.44-.06,4.23-.44,4.12-3.67-.13-3.44-.52-6.86-.76-10.29-.72-10-1.19-20-2.2-30-.53-6.86-2.45-13.55-5.64-19.65-2-3.76-2.31-8.44-3.86-12.52-3.26-8.61-6.84-17.1-10.3-25.63-.85-2.08-2.77-3.52-5-3.76-6-1.15-12-2.2-17.91-3.72-4.36-1.17-8.63-2.67-12.76-4.48-4.26-1.83-6.15-5.28-4.94-9.91,1.3-5,2.78-9.91,4.27-14.83,1.33-4.49,2.75-8.96,4.26-13.4.47-1.32,1.09-2.59,1.85-3.77,1.69-2.68,3-5.4,2.9-8.74,0-1.15.68-2.35,1.1-3.51s1.34-2.55,1.47-3.87c.53-5.78,3.93-9.29,9.09-11.85l-.62-4.24h3.95c1.24,0,2.65.41,3.69,0,4.15-1.84,8.26-1.29,12.41-.25,2.75.68,5.07.73,7.07-1.94,1.41-1.89,8-1.74,10.61-.19.68.38,1.3.86,1.83,1.43,4,4.53,9.46,5.69,14.95,7,15.81,3.85,31.7,7.43,47.31,12,12.45,3.6,24.59,8.27,36.76,12.76,7.18,2.66,14.14,5.91,21.19,8.89.54.32,1.14.54,1.76.64,8.82.12,15.09,6.22,22.39,9.76,14.47,7,26.76,17.18,38.34,28.31,6.67,6.41,13.46,12.63,18.56,20.43,1.79,2.75,3.46,5.58,5.17,8.39,2.77,4.59,3.87,10.01,3.11,15.32-.31,2.63-.18,5.31-.24,8-.13,6.5-1.32,12.93-.57,19.51.3,2.62-.76,5.59-1.83,8.14-1.31,3.01-2.04,6.24-2.13,9.52-.12,4.68-.31,9.35-.36,14-.02,4.23-.96,8.39-2.78,12.21-2.21,4.66-4.13,9.49-6.72,13.93-2.78,4.7-5.87,9.2-9.26,13.47-2.69,3.43-6,6.4-8.91,9.65-5.6,6.2-13,9.69-20.29,13.24-7.85,3.84-16,7-24.21,10.13-3.29,1.26-6.94,1.57-10.42,2.3-12.55,2.63-25.11,5.21-37.64,7.91-4.38,1-8.56,3-13.22,2.29-5.94,3.28-12.68,3.06-19.08,4.24-5.67,1-11.41,1.7-17.12,2.55-3.82.57-4,.75-4,4.29.37,25.58,2.37,51,9.94,75.59,1.27,3.86,2.27,7.81,3,11.81.56,3.33.77,6.76-1,10-1.02,1.77-1.63,3.74-1.77,5.78-.23,6.4-2.79,12-5.09,17.81-1,2.46-2.14,4.72-5.25,4.44s-5.93-1.39-7-4.62c-1.67-4.86-3.1-9.82-4.66-14.72-.39-1.51-.95-2.98-1.66-4.37-3-5-4.46-10.48-5.66-16.13-2.18-10.25-4.89-20.38-7-30.65-3.15-15.54-3.83-31.34-4.17-47.15,0-1.25-.15-2.5-.15-3.75.12-1.46-.82-2.79-2.24-3.16-2.63-1-5.18-2.16-7.84-3-4.15-1.35-5.24-2.32-5.38-6.56-.18-5.14.05-10.3-.06-15.45-.05-2.63-.31-5.25-.77-7.84-.44-2.41-1.76-4.66-.36-7.23.35-.65-.22-1.79-.36-2.71-.26-1.59-.24-3,1.25-4.19,1.94-1.55,2.07-3.49,1-5.83-.93-2-1.81-4.28-.68-6.64.19-.4.19-.88,0-1.28-2.43-2.36-.65-5.61-1.8-8.24-.27-.58-.24-1.26.07-1.82,2.29-2.28,2-5.31,2.54-8.09.25-1.67.73-3.34,1.21-5.64ZM314.93,910.07c.17-.54.33-1.08.5-1.61-1.06-.68-2.13-1.33-3.17-2-4.51-3.07-8.91-6.33-13.54-9.2-8.36-5.19-16.68-10.5-25.35-15.12-11.55-6.14-23.1-12.17-36-15.62-13.7-3.68-27-8.94-40.49-13.39-3.35-1.1-6.82-2-10.36-1.36-1.56,5.87,2.54,86.3,4.83,92.24,6.45-.41,13.22-.29,19.79-1.35,18-2.93,36.06-6.08,54-9.67,13.17-2.63,26.33-5.73,37.61-13.67,4.17-2.95,8.13-6.17,12.18-9.25Z"/><path class="cls-1" d="M680.33,456.58c2,.26,3.58.52,5.14.64,5.76.46,11.52.9,17.28,1.31,2.56.1,5.04.94,7.15,2.4,1.12.73,2.38,1.24,3.69,1.49,2.47.43,4.38,2.42,4.72,4.91.69,3.83,1.39,7.67,1.74,11.54,1.56,17.14,2.23,34.34,2,51.55-.26,18.85,1.44,37.59,3.31,56.32,1.19,11.9,2.2,23.82,3.15,35.74,1.83,23.17,2.62,46.42,5.61,69.49.26,2,.52,4,.72,6,.23,2.94-.24,5.88-1.38,8.6-1.71,4.47-2.65,9.24-4,13.88-.47,1.66-1,3.3-1.61,4.94-.25.76-.89,1.55-.79,2.25.84,5.87-2.84,10.68-3.68,16.18-.79,5.31-2.5,10.45-5.04,15.18-.39.71-.64,1.49-1.07,2.16-3.76,5.94-11.28,6-15.15.12-1.68-2.31-2.4-5.17-2-8,.32-2.07-.3-4.27-.19-6.4.75-14-.23-27.93-1.64-41.84-.23-2.28-.27-4.57-.48-6.84-.6-6.67-1.3-13.33-1.86-20-1.37-16.21-2.6-32.42-4-48.61-.7-7.9-1.63-15.77-2.65-23.63-.37-2.9-1.48-5.69-1.89-8.59-.57-4.12-.74-8.29-1.21-12.43-.43-3.86-1-7.7-1.57-11.54-.05-.54-.25-1.06-.58-1.49-3-3.28-2.08-7.26-2.08-11.08.02-4.02-.47-8.02-1.47-11.91-1.23-4.78-1.42-9.82-2-14.75-.47-3.83-.57-4-4.38-4.25-5.36-.34-10.74-.43-16.1-.89-12.44-1.06-24.77-3.15-36.87-6.24-6.09-1.55-10.89-4.89-15.54-9.66-2.47,1.75-5.18,3.44-7.62,5.45-9.44,7.77-18.79,15.65-28.2,23.46-1.27,1-2.05,2.51-2.12,4.13-1.7,22-2.33,44-.28,66.05.76,8.14,2.35,16.19,3.53,24.29.29,2,.36,4,.71,6,.59,3.28,1.35,6.53,2,9.8.1.76.12,1.53.08,2.29,0,.93-.36,2,0,2.74,1.63,2.91.55,5.58-.09,8.48-1.27,5.75-2.22,11.57-3,17.4-1.05,7.41-1.87,14.85-2.76,22.28-.16,1.33-.13,2.67-.22,4-.16,2.54-.46,5-2.12,7.17-.89,1.47-1.35,3.16-1.35,4.88.05,2.68-1.88,4.99-4.53,5.42-5.49,1.18-10.63.37-15.16-3.25-1.22-.86-1.87-2.32-1.7-3.81.29-4,0-8,.66-12,1.88-11.74.21-23.53.62-35.29.37-10.29-.84-20.64-1.4-31-1.12-20.66-2.35-41.31-3.36-62-.3-6.16.31-12.38-.08-18.53s1.14-11.89.77-17.86,1.18-11.88-.32-17.81c-.26-1,.5-2.29.51-3.45-.01-1.21-.33-2.39-.91-3.45.5-1.77,1.87-3.6-.79-5.6,3.81-2,4.26-5.29,4.54-8.85,1.18-15.22.94-30.33-2.76-45.26-1-4.14-1.57-8.41-2.36-12.61-.85-4.47-1.36-9-2.68-13.35-1.81-5.92-1.23-11.67.08-17.49,1.47-6.65,3.59-13.13,6.33-19.36,1.7-3.84,1.48-3.92,6-4.16.55-.14,1.07-.37,1.55-.67-1-1.47-2.26-1.26-3.35-1.14-4.79.54-9.58,1-14.33,1.8-12.06,1.95-24.13,3.94-36.15,6.14-2.86.52-5.59,1.86-8.33,2.93-2.3.91-4.5,1.44-7,.57-1.31-.45-2.92-.08-4.3-.08-1.48-1.29-2.83-2.57-4.28-3.72-1.08-.63-1.44-2.02-.8-3.09.02-.03.04-.06.05-.09,1.55-2.35,1.64-5,2.18-7.58.89-3.49,2.12-6.88,3.68-10.12.78-1.97,1.36-4.01,1.73-6.09,1.13-5.34,3-10.53,4.28-15.84.67-2.71.77-5.56,1.18-8.34.53-3.6,2.14-6.75,3.58-10.08,2.73-6.28,7.86-8.1,13.52-9.35,4.44-1,9-1.39,13.54-2,6-.78,12-1.42,18-2.24,13.19-1.75,26.49-2.57,39.79-2.43,3.46.03,6.84,1.07,9.71,3,.86.61,1.84,1.04,2.88,1.25,8,1.14,16,2.18,23.95,3.28,1.86.26,3.73.52,5.56.91,6.68,1.5,13.46,2.48,20.29,2.92,8.25.45,15.9,3.78,23.44,7,1.95.82,4.62.84,5.59,3.42.06.18.43.26.68.34,12.65,4.12,21.86,9.42,30.95,17.86,4.35,4.09,7.1,9.59,7.76,15.52.85,6.11-.47,11.9-1.54,17.89-1.68,9.46-4.94,18.42-7.67,27.5-3.39,11.26-6.78,22.65-12.59,33-.33.74-.61,1.5-.85,2.27ZM652.84,417.36c-1.5-1.22-2.77-2.79-4.4-3.49-9.25-4-18.36-8.5-28-11.33-12.71-3.74-25.83-6.14-38.8-9-2.91-.53-5.85-.83-8.8-.9-3-.17-3.58.44-3.55,3.37,0,.67.1,1.34.11,2,.35,12.88,1,25.77.95,38.65-.08,15.85-.77,31.69-1.17,47.53.05,1.1.15,2.21.31,3.3,1.65-1.19,2.82-2,3.94-2.85,7.42-5.76,14.85-11.51,22.23-17.34,12.62-10,25.86-19.16,37.69-30.17,6.71-6.13,13.82-11.85,19.49-19.77Z"/><path class="cls-1" d="M220.06,713.23c.84,1.36-1.21,11-2.75,11.95-.62.35-1.3.58-2,.68-2.27-1.37-3.82-2.47-5.51-3.28-.81-.31-4.31-7.34-4.47-7.4-2.72-6.34-5.22-12.25-7.78-18.13-14.57-33.18-26.37-67.51-35.29-102.63-5.64-22.43-10.49-45-15-67.69-1.51-7.19-3.48-14.29-5.9-21.23-1.42-4.23-3.86-8.11-5.88-12.24-2.6.21-2.91,2.28-3.25,4.07-.7,3.62-1.24,7.26-1.76,10.9-3.09,21.6-8.14,42.81-12.44,64.17-4.91,24.39-9.19,48.9-13.7,73.37-1,5.65-2,11.31-2.86,17-.47,2.91-.69,5.85-.68,8.79,0,3.21.14,6.09-1.46,9.27-1.35,2.67-1,6.34-.92,9.55s.66,6.43,1,9.64c.07.28.11.58.11.87-.6,4.74-3.17,8.82-4.79,13.19-.81,2.17-4.93.69-6.08-2.33-3.43-9-7.3-18-10-27.22-6.31-21.31-12-42.81-18.07-64.18-3.16-11-6-22.17-11.48-32.4-1.73-3.22-2.74-6.83-4.08-10.26-2.71-7-5.6-13.92-8.09-21-2.25-6.38-4.15-12.88-6-19.38-1.71-5.94-3-12-4.8-17.92-4.13-13.81-8.13-27.67-12.71-41.33-2-5.93-5.28-11.41-8-17.08-1.53-3.18-3.21-6.29-4.65-9.51-.56-1.2-.82-2.52-.77-3.84.32-4.54.85-9.06,1.31-13.59.93-9.2,2-18.38,2.73-27.59.57-7.77,1.84-15.46,3.8-23,.31-1.14.79-2.23,1.41-3.23,2-3.23,5.3-3.7,8.25-1.42,7.45,5.77,11.41,13.59,13.38,22.58,4.27,19.41,8.53,38.82,12.76,58.23,4,18.17,10.23,35.65,16.2,53.21,6.5,19.11,12.26,38.44,17.09,58q1.41,5.75,4.26,8.36c2.79-3.94,4.61-8.49,5.29-13.27.58-4.38,1.41-8.72,2.48-13,1.74-6.95,3.85-13.81,5.68-20.75,1.35-5.12,2.47-10.3,3.74-15.44,2.61-10.56,5.54-21.05,7.81-31.68,4.5-21,8-42.21,11-63.51,1.22-8.73,3.53-17.3,5.2-26,1.03-4.56,1.52-9.23,1.47-13.91-.18-4.56.8-9.35,5-12.93,2.52-2.16,5.1-2.23,7.72-2.06,5.13.33,9.08,4.37,10.35,9.46,1.53,6.17,1.74,12.47,2.5,18.72,1.24,9.19,2.98,18.31,5.22,27.31,2.73,11.76,6.3,23.32,8.84,35.11,3.53,16.4,6.53,32.93,9.61,49.42,4.79,25.63,10.16,51.13,17,76.3,2.67,9.8,5.33,19.6,8,29.4.49,1.78,1.16,3.5,1.91,5.73,2.3-2.07,2.74-4.19,3.22-6.32,1.48-6.46,2.9-12.93,4.52-19.35.59-1.62,1.35-3.18,2.25-4.65.75-1.23,1.36-2.54,1.83-3.9,3.81-16.19,7.49-32.41,11.3-48.59,2.4-10.18,4.15-20.6,7.64-30.39,8-22.39,12-45.83,19.06-68.43,8.43-26.81,16.35-53.8,25.35-80.42,3.29-9.74,6.82-19.41,9.59-29.31,2.33-8.32,4-16.84,5.81-25.3.13-1.16.09-2.33-.12-3.48-.22-2.34-.53-4.67-.72-7s.25-4.57-1.84-6.52c-1.37-1.28-.33-4,1.53-4.69,1.27-.35,2.57-.56,3.89-.64,1.84-.24,3.67.08,5.46-1.16,1-.7,3-.61,4.26-.2,2.8.84,5.5,1.99,8.06,3.41,1.56.91,2.73,2.59,3.9,4.06,1.56,2-.5,3.55-.8,5.33-.92,5.48-1.88,11-2.83,16.43,2.37,6.49-.32,12.64-1.2,18.91-.64,4.49-1,9-1.64,13.49-1.06,7.42-1.85,14.91-3.45,22.22-5.86,26.78-14.26,52.87-22,79.14-5.85,19.91-11.85,39.76-17.14,59.85-8.83,33.49-16.36,67.23-22.9,101.22-2.62,13.59-5.37,27.16-8.5,40.64-3.1,13.33-6.8,26.51-10.16,39.78-.8,2.68-1.3,5.44-1.47,8.23-.06,3.64-1.07,6.63-4,9,2.25,4.56.55,9.22,1.15,13.79Z"/><path class="cls-1" d="M650.38,275.46l3.22-1.8c-.16-1.94-.2-3.94-.5-5.9-1.94-12.38-4-24.74-5.9-37.13-.9-6-1.35-12-2.17-17.95-.61-4.45-1.47-8.86-2.27-13.28-.13-.52-.33-1.03-.59-1.5-5.56.41-10.82.77-16.07,1.17-10.72.83-21.44,1.68-32.16,2.53-6.37.51-12.73,1.21-19.1,1.54-3.26.18-5.05,1.44-6.24,4.55-5.34,14-11,28-16.32,42-1.17,3-1.47,6.42-2.45,9.56-1.07,3.44-2,7-4.46,9.82-1.13,1.27-2.11,1.9-3.93.84-1.58-.9-3.57-1.08-5.36-1.63-2.05-.62-2.73-2.19-2.55-4.13.14-1.52.43-3.03.85-4.5,2.71-9.92,5.31-19.87,8.28-29.71,2.33-7.68,5.08-15.24,7.75-22.82,1.29-3.69,1.39-3.65-2-5.81-3.66-2.3-3.94-4.89-.94-8.08,3.16-3.32,5.71-7.17,7.53-11.38,2-4.66,4.26-9.22,6.61-13.72.9-1.51,2.04-2.87,3.39-4,2.4-2.25,4.32-4.98,5.63-8,4.7-10.22,8.58-20.74,12.63-31.22,2.21-5.72,5-11.23,7.53-16.82,4-8.81,8-17.63,12.19-26.38,1.28-2.53,2.75-4.95,4.39-7.26,2.7-4,5.48-8,8.34-11.9,1.38-1.89,3.07-3.57,4.56-5.39,3-3.74,5.94-7.62,9.13-11.23,1.5-1.65,3.27-3.04,5.22-4.12,1.86-1.08,3.37-.38,4.31,1.6.56,1.17.99,2.4,1.3,3.66.7,3,1.33,6,1.92,9,1.92,9.74,4.15,19.43,5.65,29.24,2.17,14.29,5.72,28.27,9,42.31,2.64,11.28,5.32,22.56,7.7,33.9,2.44,11.68,4.56,23.43,6.8,35.15,2.02,11.17,4.66,22.21,7.91,33.09,1,3.16,1.73,6.39,2.58,9.58.1.32.17.66.19,1,0,4.33,0,8.66-.18,13-.13,2.8-.43,5.59-.9,8.35-.25,1.47-1.11,2.83-1.48,4.3-1.22,4.89-2.29,9.81-3.52,14.7-.39,1.19-.88,2.35-1.47,3.46-.55,1.04-1.04,2.11-1.48,3.2-1,2.89-2.4,4-5.4,3.49-2.67-.45-5.28-1.21-7.77-2.27-1.41-.81-2.57-2-3.35-3.42-.67-1.24-1.09-2.6-1.25-4-.36-2.3-1.11-4.11-3.73-4.48-.26-.12-.45-.55-1.07-1.21ZM632.38,156.39c-.32-2-.43-3.35-.78-4.66-.45-1.71-1.15-3.35-1.63-5s-.84-3.44-1.26-5.16-.88-3.44-1.26-5.16c-.47-1.71-.8-3.46-1-5.22-.09-1.57-1.68-2.09-1.93-3.41-.76-4.18-1.62-8.35-2.19-12.56-.93-6.79-1.67-13.6-2.46-20.41-.17-1.45-.43-2.76-2.4-3.41-.59,1.24-1.18,2.36-1.67,3.52-8.05,18.92-16.08,37.84-24.11,56.77-1.19,2.82-.5,3.81,2.58,4.76,5.08,1.56,10.3,1.55,15.47,1.43,7.26-.22,14.58-.95,22.61-1.49h.03Z"/><path class="cls-1" d="M82.58,217.18c3.32-.54,5.46-.81,7.56-1.26,15-3.18,30-6.82,45.34-7.86,6.47-.43,13-.54,19.44-.91,3.31-.17,6.62-.5,9.9-1,6.34-1,11.22,2,13.21,8.27-3.77,3.1-9,14.45-9.27,18.67-.69,1.77-1.46,3.51-2.32,5.2-1.22,2.16-2.8,4.13-4,6.31-.96,1.62-1.63,3.39-2,5.24-.78,4.22-2.51,8.21-5.07,11.65-2.57,3.72-5.92,6.34-10.94,6.56-2.7.12-5.3,1.83-8,2.31-6.69,1.18-13.49,1.75-20.13,3.12-11.92,2.48-23.77,5.34-35.64,8.1-8.78,2.05-17.51,4.37-26.33,6.21-3.11.52-6.29.59-9.42.19-3.18-.29-3.86-1.68-3.58-4.89,1.07-12.11,2.18-24.22,3-36.35.25-3.76-.3-7.58-.57-11.36-.17-3.6.42-7.19,1.73-10.54,4.41-12.5,11-23.81,17.47-35.25,3-5.24,6.26-10.28,9.15-15.54,1.74-3.16,2.92-6.61,4.47-9.87,1-2.13,2.29-4.13,3.39-6.22.71-1.33,1.33-2.72,2.29-4.71-1.3-.04-2.6.03-3.89.21-9.34,2.42-18.72,4.72-28,7.48-3.93,1.17-7.56.49-11.19-.38-3.2-.77-4.54-3.28-3.91-6.55.59-3.1,1.55-6.12,2.25-9.2,2.13-9.23,4.2-18.47,6.32-27.7.71-3.08,1.35-6.18,2.31-9.18,1.06-3.28,3.47-5.07,7-5.68,6.69-1.16,13.42-2.26,20-3.85,18.45-4.4,37.01-8.32,54.85-15.18,7.14-2.75,14.4-5.62,22.24-6.41,4.31-.59,8.62,1.08,11.41,4.42,1.64,1.82,2.46,4.07.85,6-3.86,4.75-4.78,10.52-5.95,16.16-.77,3.7-2.73,6.68-4.45,9.86-.96,1.62-1.64,3.39-2,5.24-1,7.15-4.19,13.14-8.85,18.56-8.8,9.96-17.05,20.39-24.71,31.25-3.57,5.19-7.42,10.19-10.6,15.64-.32.54-.6,1.29-1.09,1.51-4.58,2-6.32,6.48-8.88,10.2-3.85,5.59-7.57,11.27-11.28,16.95-.8,1.48-1.5,3.01-2.11,4.58Z"/><path class="cls-1" d="M201.85,136.61c.22-1.2.56-2.37,1-3.51,1.46-2.92,1.54-5.92,1.7-9.14.25-4.79-.36-9.6.91-14.45,1.16-4.49,1-9.32,1.45-14,.06-.62-.2-1.4.08-1.86,3.83-6.19,4.73-13.63,10.21-19.32,20.33-21.12,51.66-26.14,77.92-14.17,8,3.62,14.86,8.39,19.56,15.91,3.5,5.61,4.88,12,6.23,18.31,5.76,27,2.21,53.48-4.92,79.74-1.95,7.16-2.85,14.63-5.12,21.68-3.47,11-8.25,21.55-14.24,31.42-5.54,9-13.2,14.93-21.91,20.34-10.89,6.75-21.28,7.15-32,.27-4.62-2.8-8.69-6.43-12-10.7-.91-1.23-1.63-2.51-3.77-2.15-.74.13-2-1.71-2.74-2.85-4.63-7.31-7.38-15.42-9.3-23.76-4.93-21.4-7.18-43.06-5.56-65,.41-5.68-1.22-7.21-7.5-6.76ZM232.5,156.74c1.87,7.65,3.37,15.43,5.72,22.93,2.25,7.16,6.15,13.53,12.4,18.09,4.19,3.06,5.48,2.94,9.55-.42,1.31-1.08,2.88-2.82,4.19-2.7,2.44.22,4.05-1,5.53-2.16,2.94-2.36,5.43-5.25,8.31-7.69,6.05-5.12,10.14-11.66,13.64-18.6,1.03-1.94,1.49-4.12,1.33-6.31-.81-6.9-1.98-13.76-3.49-20.54-1.67-7.2-5.12-13.24-11.48-17.87-12.32-9-25.37-10.42-39.51-5.86-2.56.82-3.72,2.29-4.12,5-1.86,11.95-2.55,24.05-2.07,36.13Z"/><path class="cls-1" d="M452.59,512c-1.92,3.48-1.44,5.1,1.75,5.17,5.48.11,11-.37,16.45-.64,1,0,1.9-.32,2.86-.39,4.59-.32,7.58,3.13,6.79,7.63-.19,1.33-.16,2.68.1,4,.58,3.73,1.64,7.35-.3,11.16-.61,1.21.39,3.24.75,5.56-1.58,1.56-1.57,4.21-1.86,7.15-.58,5.9-.06,12-2.36,17.72-.71,1.79-.53,3.94-.81,6.3-2,1.54-4.34,3.43-6.78,5.16-1.08.66-1.54,2-1.08,3.18,5.27,21.64,10.24,43.37,15.9,64.91,1.94,7.38,5.67,14.28,8.43,21.45.77,2.32,1.4,4.69,1.89,7.09.04.13.04.28,0,.41-2.64,3.53-2.5,7.56-2.09,11.64-2.42,2.55-1.07,6-2.21,9-.42,1.09.29,2.62.54,4.28-2.45,1.47-2.48,4-2.43,6.75,0,1.89-.44,3.79-.55,5.69-.26,4.13-.26,8.28-.7,12.39-.26,2.46.13,5.05-2.08,7.27-1.28,1.29-1.35,3.78-2,5.71-1.49,4.28-2.89,5.14-7.31,4.58-1.1-.06-2.19-.17-3.27-.34-2.71-.59-3.31-1.66-3.12-4.59-.06-1.06-.27-2.1-.62-3.1-.64-2.8-1.92-5.62-1.81-8.39.24-6.39-1.64-12.48-2.06-18.76-.34-3.97-.92-7.92-1.76-11.82-.33-1.65-1.33-3.17-2.16-5.06.18-1.69.16-3.4-.05-5.09-5.88-26-11.83-52-17.84-78-1.59-6.82-3.63-13.55-5.55-20.29-1-3.51-1.11-3.65-4.51-3.33-11.78,1.08-23.68,1.55-35.28,3.65-14.91,2.62-29.55,6.57-43.75,11.83-9.27,3.48-18.65,6.68-28.05,9.79-3.06.79-5.44,3.21-6.18,6.28-4.1,13.12-8.75,26.08-12.85,39.2-1.54,4.94-2.15,10.18-3.21,15.27-.24,1.18-.56,2.35-.86,3.52-.17.66-.66,1.38-.53,2,1.07,4.86-1.66,9-2.45,13.48-.34,1.47-.48,2.98-.4,4.49.22,2.06-.52,4.12-2,5.57-2.37,2.75-3.32,2.82-5.94.22-1.44-1.43-2.2-4-5.14-2.79q.46-2.23,2.5-3c-.32-5.89-.51-11.78-1-17.63-.23-2.33-.85-4.6-1.85-6.72-2.72-5.74-2.24-11.8-2.32-17.83,0-2.06.08-4.13,0-6.18-.43-6.33.31-12.69,2.18-18.75,1.48-4.87,3.21-9.66,4.56-14.56,1-3.68,1.68-7.46,2.4-11.22.93-4.83,1.72-9.7,2.67-14.53.26-1.33,1-2.57,1.24-3.91.3-1.86.5-3.73.6-5.61.24-3.12.41-6.26.64-9.38.56-7.58,3.85-14.23,7.14-20.87.42-.68,1.02-1.24,1.73-1.61,1.49-1,3.09-1.81,4.78-2.4,4.19-1.15,5.9-4.11,7.4-8,9.52-24.34,19-48.68,29-72.83,10.51-25.42,21.52-50.63,32.34-75.93,2.59-6.07,5.36-12.06,7.86-18.17,1-2.39,1.28-5,2.1-7.5,1.38-4.17,2.84-8.32,6.43-11.25,3.4-2.77,6-2.49,9.79,0,2.05,1.29,3.55,3.28,4.23,5.61,5.6,16.87,9.33,34.22,13.46,51.47,4.74,19.8,10,39.47,15,59.21,3.42,13.46,6.84,26.93,10.15,40.42.36,1.99,1,3.62,3.46,4.26ZM417.28,522.37c-2.59-6.59-4.88-12.44-7.19-18.27-.1-.25-.4-.4-.53-.63-1.02-1.59-1.9-3.26-2.63-5-2.81-8.29-5.05-16.74-8.27-24.92-2.91-7.39-4.88-15.16-7.35-22.73-.48-1.55-1.2-3.02-2.14-4.35-1.24-1.39-2.6-2.68-4.05-3.85-11.71,28.38-23.66,56.49-34.24,85.63,3.66.94,6.63,1.51,9.8.65,6.64-1.79,13.26-3.68,20-5.15,4.41-1,9-1.27,13.44-1.87.05.28.09.57.14.85l-15,3.79.18.87,37.84-5.02Z"/><path class="cls-1" d="M478.66,217.49c.42-1.51.73-2.48.95-3.47,3.21-14.44,6.38-28.89,9.65-43.31.56-1.81,1.25-3.59,2.07-5.3.34-.89.72-1.77,1-2.68,3.33-12.55,6.69-25.09,9.93-37.66,1.92-7.42,3.57-14.9,5.46-22.33,2.2-8.66,4.4-17.32,6.84-25.92s5.3-17.29,7.81-26c.88-3.05,1.29-6.24,1.9-9.37.12-.62,0-1.6.36-1.8,1.08-.65,1.82-1.75,2-3,1-4.56,1.92-9.12,2.8-13.7.08-1.2.28-2.39.58-3.55,1.46,3.61-.59,7-.72,10.81.52-.37.93-.51,1-.72.76-2.84,1.33-5.72,1.71-8.63.38-4.41.34-8.87.44-13.3-.01-.96-.08-1.91-.19-2.86-.2-2.38.25-3.52,2.52-4.13C536.83.09,538.94-.1,541.05,0,542.71,0,544.25,1.92,546.05.33c1.6,1.47,4.51.7,5.49,3.24.16.39.42.74.76,1,2.74,2,1.83,4.76,1.22,7.27-.74,3.09-1.8,6.1-2.75,9.13-1.34,4.25-2.9,8.45-4,12.75-3.42,13-6.69,26-10,39-4.36,17.11-8.6,34.27-13.11,51.35-2.5,9.46-5.51,18.78-8.17,28.2-1.62,5.73-3,11.53-4.5,17.3-.6,2.36-1.3,4.7-1.8,7.09-2.32,11.25-4.89,22.47-6.78,33.8-1.48,8.9-2,18-3.11,26.92-.89,7.39-1.92,14.76-3,22.12-.22,1.05-.64,2.04-1.24,2.92-2.17,3.8-3.46,8.04-3.77,12.41-.12.83-.34,1.65-.65,2.43-.43.86-.76,1.76-1,2.69-.48,4.89-3.13,9.15-3.89,14-.53,2.71-1.55,5.3-3,7.64-.61,1.06-2.41,1.5-3.75,2-.65.25-1.49-.07-2.22,0-2.32.33-3.6-.44-4.55-2.8-8.72-21.49-19.54-42.1-26.63-64.26-3.9-12.16-7.9-24.29-12-36.4-3-9-6.25-17.87-9.38-26.81-1.37-3.91-2.71-7.84-4.1-11.75-2.73-7.72-5.44-15.45-8.26-23.15-.76-2.07-2-4-2.8-6-1-2.45-1.71-5-2.73-7.47-.77-1.84-1.83-3.55-2.75-5.32-.34-.66-.65-1.32-.94-2-2.24-5.17-4.45-10.35-6.71-15.51-.37-.64-.81-1.25-1.32-1.79-1.35,1-1.13,2.25-1,3.3,1.25,10.08-.58,20-1.87,29.86-2,15.73-4.22,31.44-5.18,47.29-.03,2,.06,4.01.26,6,.12,2.12.26,4.24.41,6.35.16,2.22.5,4.44.47,6.65-.1,1.99-.34,3.97-.72,5.93-.1.61-.71,1.19-.67,1.76.29,4.72-2.88,8.63-3.07,13.24,0,.56-.59,1.09-.86,1.66-.4.73-.73,1.49-1,2.28-.79,2.85-1.55,5.72-2.24,8.6-.59,2.52-1.07,5.08-1.6,7.62-.07.84-.26,1.67-.57,2.46-1.25,2.29-2.67,4.42-3.16,7.12-.33,1.76-2.52,2.47-4.51,2-.78-.33-1.58-.59-2.4-.78-2.91-.1-3.79-2.1-4.16-4.42-.19-1.69-.25-3.4-.17-5.1,0-10.75-.65-21.46-1.57-32.17-.21-4.25-.02-8.51.57-12.72,1.51-14.19,3.27-28.34,4.74-42.53,1.05-10.16,1.67-20.37,2.7-30.53.81-8,1.94-16.06,3-24.08,1.26-9.81,2.6-19.62,3.81-29.44.19-1.55-.16-3.15-.11-4.72-.06-1.79.12-3.59.53-5.33.8-2.52,2.17-4.84,3.09-7.32,1.26-3.38,2.13-6.91,3.54-10.21,1.55-3.72,2.81-7.54,3.78-11.45.27-.58.44-1.2.5-1.83-.39-3.1,1.4-5.47,2.6-8,.26-.58.66-1.1.88-1.69,1.23-3.28,1.88-3.74,5.3-3.64.63.09,1.26.12,1.89.09,4.57-.83,7.57,1.41,9.47,5.19,3,6,5.95,12,8.63,18.15,2.86,6.52,5.59,13.12,8,19.81,3.05,8.39,5.72,16.93,8.56,25.39,4.95,14.74,10,29.44,14.84,44.2,4.92,15,9.66,30,14.49,45,4.36,14.03,9.56,27.79,15.58,41.19.38.69.8,1.35,1.27,1.98Z"/></g></g></svg>